<svg width="40" height="40" viewBox="0 0 40 40" fill="none" xmlns="http://www.w3.org/2000/svg">
<g clip-path="url(#clip0_307_76)">
<path d="M14.4274 32.1604C14.1493 32.2122 14.0278 32.3428 14.0626 32.5509C14.0973 32.7592 14.2535 32.8287 14.5313 32.7592C14.8094 32.6898 14.9308 32.5681 14.8958 32.3946C14.8614 32.2038 14.7051 32.1255 14.4274 32.1604Z" fill="#263457"/>
<path d="M12.9429 32.3703C12.6651 32.3703 12.5262 32.4652 12.5262 32.6566C12.5262 32.8823 12.6739 32.9775 12.9689 32.9428C13.2467 32.9428 13.3857 32.8473 13.3857 32.6566C13.3857 32.4312 13.2381 32.3353 12.9429 32.3703Z" fill="#263457"/>
<path d="M10.9117 32.2921C10.8423 32.4831 10.9553 32.613 11.2502 32.6828C11.5106 32.7865 11.6756 32.7346 11.7449 32.5265C11.7971 32.3358 11.6841 32.1972 11.4064 32.1098C11.1459 32.0406 10.9811 32.1005 10.9117 32.2921Z" fill="#263457"/>
<path d="M37.7994 2.20032C36.3323 0.733532 34.5663 0 32.4999 0H7.49995C5.43417 0 3.66748 0.733532 2.20032 2.20032C0.733532 3.66738 0 5.43408 0 7.49995V32.5002C0 34.5662 0.733532 36.3327 2.20032 37.7995C3.66738 39.2666 5.43417 40.0001 7.49995 40.0001H13.3333C13.7149 40.0001 14.0016 39.987 14.1925 39.9614C14.3833 39.9351 14.5741 39.8222 14.7652 39.6224C14.9564 39.4229 15.0516 39.132 15.0516 38.7502C15.0516 38.6984 15.0471 38.1075 15.0385 36.9791C15.0296 35.8504 15.0254 34.9564 15.0254 34.2966L14.4264 34.4008C14.0445 34.4701 13.5627 34.5007 12.981 34.4919C12.3996 34.4832 11.7962 34.4226 11.1713 34.3097C10.546 34.1967 9.96461 33.9364 9.42636 33.5287C8.88839 33.1204 8.50648 32.5867 8.28073 31.9271L8.02023 31.3278C7.84665 30.9289 7.57338 30.486 7.20005 30.0003C6.82671 29.5139 6.44918 29.184 6.06728 29.0104L5.88494 28.8802C5.76354 28.7934 5.65071 28.6888 5.54645 28.5674C5.44238 28.4456 5.3643 28.324 5.31222 28.2028C5.26014 28.0811 5.30337 27.9812 5.44238 27.9028C5.58139 27.8249 5.83286 27.7862 6.19762 27.7862L6.71826 27.8642C7.0656 27.9335 7.49503 28.1416 8.00746 28.4891C8.51953 28.8362 8.94047 29.2875 9.27039 29.8429C9.6699 30.5549 10.1512 31.0971 10.7157 31.4704C11.2798 31.8441 11.8485 32.0308 12.4213 32.0308C12.9941 32.0308 13.4889 31.9873 13.9057 31.9009C14.3221 31.8139 14.7128 31.6833 15.0775 31.5098C15.2338 30.3467 15.6592 29.4521 16.3534 28.8272C15.3639 28.7229 14.4743 28.5669 13.6841 28.3584C12.8944 28.1498 12.0783 27.8115 11.2364 27.3426C10.3941 26.8738 9.69544 26.2926 9.13986 25.5977C8.58438 24.9029 8.1285 23.9915 7.77286 22.8633C7.41704 21.7346 7.23909 20.4323 7.23909 18.9568C7.23909 16.8563 7.9251 15.0678 9.29657 13.5922C8.65407 12.0124 8.71472 10.2418 9.47872 8.27982C9.98221 8.12348 10.7289 8.24078 11.7184 8.63145C12.708 9.02238 13.4326 9.35668 13.8929 9.63406C14.3531 9.91152 14.7219 10.1461 14.9997 10.3373C16.6146 9.88589 18.2812 9.66023 19.9998 9.66023C21.7184 9.66023 23.3852 9.88589 25.0002 10.3373L25.9897 9.71232C26.6671 9.29547 27.4656 8.91357 28.3858 8.5665C29.306 8.21935 30.0089 8.12376 30.4953 8.2801C31.2762 10.2421 31.3461 12.0127 30.7032 13.5924C32.0746 15.0681 32.7608 16.8565 32.7608 18.9571C32.7608 20.4329 32.5829 21.7395 32.227 22.8764C31.8715 24.0135 31.4117 24.9253 30.847 25.611C30.2829 26.2969 29.5797 26.8737 28.7378 27.3428C27.8957 27.8114 27.0797 28.1503 26.2897 28.3582C25.4997 28.5667 24.6101 28.7234 23.6205 28.8276C24.5227 29.6086 24.974 30.8409 24.974 32.5252V38.7494C24.974 39.0446 25.0171 39.2832 25.1039 39.4655C25.1913 39.6477 25.3299 39.7732 25.5208 39.8432C25.7126 39.9125 25.881 39.9559 26.029 39.9731C26.1769 39.9905 26.3892 39.9993 26.667 39.9993H32.5003C34.5661 39.9993 36.3329 39.2657 37.7993 37.7987C39.2664 36.3316 39.9999 34.5648 39.9999 32.499V7.49995C39.9997 5.43408 39.2662 3.66711 37.7994 2.20032Z" fill="#263457"/>
<path d="M7.91661 29.1135C7.7952 29.2 7.81253 29.3389 7.96878 29.5299C8.14263 29.7034 8.28137 29.7296 8.38562 29.6079C8.50703 29.5214 8.4897 29.3825 8.33318 29.1912C8.15969 29.0352 8.02086 29.009 7.91661 29.1135Z" fill="#263457"/>
<path d="M7.05749 28.4646C7.0055 28.5863 7.06624 28.6906 7.23982 28.7771C7.37855 28.8642 7.49175 28.847 7.57831 28.7252C7.6303 28.6035 7.56955 28.4992 7.39598 28.4121C7.2224 28.3599 7.10957 28.3775 7.05749 28.4646Z" fill="#263457"/>
<path d="M8.72412 30.1304C8.56769 30.2169 8.56769 30.3736 8.72412 30.599C8.88037 30.825 9.02767 30.8856 9.16677 30.7812C9.32311 30.6596 9.32311 30.4946 9.16677 30.2862C9.02804 30.0611 8.88037 30.0084 8.72412 30.1304Z" fill="#263457"/>
<path d="M9.63578 31.3034C9.47944 31.4426 9.51392 31.6068 9.73995 31.7985C9.948 32.0063 10.1217 32.0325 10.2606 31.8759C10.3996 31.7373 10.3648 31.5725 10.1564 31.3815C9.94837 31.1736 9.7747 31.1473 9.63578 31.3034Z" fill="#263457"/>
</g>
<defs>
<clipPath id="clip0_307_76">
<rect width="40" height="40" fill="white"/>
</clipPath>
</defs>
</svg>
