<svg width="40" height="40" viewBox="0 0 40 40" fill="none" xmlns="http://www.w3.org/2000/svg">
<g clip-path="url(#clip0_307_72)">
<path d="M39.9609 11.7601C39.8672 9.63476 39.5235 8.17359 39.0311 6.90748C38.5232 5.56353 37.7418 4.36029 36.7181 3.36003C35.7178 2.34421 34.5066 1.55487 33.1782 1.05489C31.9048 0.562549 30.4513 0.218854 28.3259 0.125146C26.1847 0.0235031 25.5049 0 20.0742 0C14.6434 0 13.9637 0.0235031 11.8304 0.11721C9.70502 0.210918 8.24386 0.554918 6.97805 1.04696C5.63379 1.55487 4.43055 2.33627 3.4303 3.36003C2.41447 4.36029 1.62544 5.57146 1.12516 6.89985C0.632816 8.17359 0.28912 9.62682 0.195413 11.7522C0.0937698 13.8934 0.0702667 14.5732 0.0702667 20.0039C0.0702667 25.4347 0.0937698 26.1144 0.187477 28.2477C0.281184 30.3731 0.625185 31.8342 1.11753 33.1003C1.62544 34.4443 2.41447 35.6475 3.4303 36.6478C4.43055 37.6636 5.64173 38.4529 6.97011 38.9529C8.24386 39.4453 9.69709 39.789 11.8227 39.8827C13.9557 39.9767 14.6358 39.9999 20.0665 39.9999C25.4973 39.9999 26.1771 39.9767 28.3103 39.8827C30.4357 39.789 31.8969 39.4453 33.1627 38.9529C35.8509 37.9136 37.9762 35.7882 39.0156 33.1003C39.5076 31.8266 39.8516 30.3731 39.9453 28.2477C40.039 26.1144 40.0625 25.4347 40.0625 20.0039C40.0625 14.5732 40.0546 13.8934 39.9609 11.7601ZM36.3588 28.0914C36.2727 30.0449 35.9446 31.0998 35.6711 31.8031C34.999 33.5457 33.6159 34.9287 31.8734 35.6008C31.1701 35.8743 30.1076 36.2024 28.1617 36.2882C26.0519 36.3822 25.4192 36.4054 20.0821 36.4054C14.7451 36.4054 14.1044 36.3822 12.0022 36.2882C10.0487 36.2024 8.99382 35.8743 8.29056 35.6008C7.42339 35.2803 6.63405 34.7724 5.99336 34.1082C5.32917 33.4596 4.82126 32.6782 4.50076 31.811C4.22727 31.1078 3.89914 30.0449 3.81337 28.0994C3.71936 25.9896 3.69616 25.3565 3.69616 20.0195C3.69616 14.6824 3.71936 14.0417 3.81337 11.9399C3.89914 9.98639 4.22727 8.93149 4.50076 8.22823C4.82126 7.36075 5.32917 6.57172 6.0013 5.93072C6.64962 5.26653 7.43102 4.75862 8.2985 4.43843C9.00176 4.16494 10.0646 3.83681 12.0102 3.75073C14.1199 3.65703 14.753 3.63352 20.0897 3.63352C25.4347 3.63352 26.0675 3.65703 28.1696 3.75073C30.1231 3.83681 31.178 4.16494 31.8813 4.43843C32.7485 4.75862 33.5378 5.26653 34.1785 5.93072C34.8427 6.57935 35.3506 7.36075 35.6711 8.22823C35.9446 8.93149 36.2727 9.99402 36.3588 11.9399C36.4525 14.0497 36.476 14.6824 36.476 20.0195C36.476 25.3565 36.4525 25.9816 36.3588 28.0914Z" fill="#263457"/>
<path d="M20.0742 9.72656C14.4014 9.72656 9.79872 14.3289 9.79872 20.002C9.79872 25.6751 14.4014 30.2775 20.0742 30.2775C25.7473 30.2775 30.3496 25.6751 30.3496 20.002C30.3496 14.3289 25.7473 9.72656 20.0742 9.72656ZM20.0742 26.6674C16.3939 26.6674 13.4087 23.6825 13.4087 20.002C13.4087 16.3215 16.3939 13.3366 20.0742 13.3366C23.7547 13.3366 26.7396 16.3215 26.7396 20.002C26.7396 23.6825 23.7547 26.6674 20.0742 26.6674Z" fill="#263457"/>
<path d="M33.155 9.32072C33.155 10.6454 32.0809 11.7196 30.7559 11.7196C29.4312 11.7196 28.357 10.6454 28.357 9.32072C28.357 7.99569 29.4312 6.92188 30.7559 6.92188C32.0809 6.92188 33.155 7.99569 33.155 9.32072Z" fill="#263457"/>
</g>
<defs>
<clipPath id="clip0_307_72">
<rect width="40" height="40" fill="white"/>
</clipPath>
</defs>
</svg>
