<svg width="40" height="40" viewBox="0 0 40 40" fill="none" xmlns="http://www.w3.org/2000/svg">
<g clip-path="url(#clip0_307_70)">
<path d="M10.9381 33.0469H8.59436C7.73132 33.0469 7.03186 32.3474 7.03186 31.4844V16.9531C7.03186 16.0901 7.73132 15.3906 8.59436 15.3906H10.9381C11.8011 15.3906 12.5006 16.0901 12.5006 16.9531V31.4844C12.5006 32.3474 11.8011 33.0469 10.9381 33.0469ZM13.0463 9.76532C13.0463 7.99744 11.6119 6.5625 9.84497 6.5625C8.07129 6.5625 6.64062 7.99744 6.64062 9.76532C6.64062 11.5338 8.07129 12.9688 9.84497 12.9688C11.6119 12.9688 13.0463 11.5338 13.0463 9.76532ZM32.9688 31.4844V23.3331C32.9688 18.5934 31.9675 15.0781 26.4307 15.0781C23.7701 15.0781 21.9843 16.4087 21.2552 17.7924H21.25V16.9531C21.25 16.0901 20.5505 15.3906 19.6875 15.3906H17.5C16.637 15.3906 15.9375 16.0901 15.9375 16.9531V31.4844C15.9375 32.3474 16.637 33.0469 17.5 33.0469H19.6875C20.5505 33.0469 21.25 32.3474 21.25 31.4844V24.2804C21.25 21.9846 21.8344 19.7604 24.6802 19.7604C27.4872 19.7604 27.5781 22.3859 27.5781 24.4263V31.4844C27.5781 32.3474 28.2776 33.0469 29.1406 33.0469H31.4062C32.2693 33.0469 32.9688 32.3474 32.9688 31.4844ZM40 33.75C40 32.887 39.3005 32.1875 38.4375 32.1875C37.5745 32.1875 36.875 32.887 36.875 33.75C36.875 35.473 35.473 36.875 33.75 36.875H6.25C4.52698 36.875 3.125 35.473 3.125 33.75V6.25C3.125 4.52698 4.52698 3.125 6.25 3.125H33.75C35.473 3.125 36.875 4.52698 36.875 6.25V25.8594C36.875 26.7224 37.5745 27.4219 38.4375 27.4219C39.3005 27.4219 40 26.7224 40 25.8594V6.25C40 2.80365 37.1964 0 33.75 0H6.25C2.80365 0 0 2.80365 0 6.25V33.75C0 37.1964 2.80365 40 6.25 40H33.75C37.1964 40 40 37.1964 40 33.75Z" fill="#263457"/>
</g>
<defs>
<clipPath id="clip0_307_70">
<rect width="40" height="40" fill="white"/>
</clipPath>
</defs>
</svg>
